<svg width="1280" height="536" viewBox="0 0 1280 536" fill="none" xmlns="http://www.w3.org/2000/svg">
<g clip-path="url(#clip0_767_18653)">
<rect width="1280" height="356" fill="#1d4ed8"/>
<mask id="mask0_767_18653" style="mask-type:alpha" maskUnits="userSpaceOnUse" x="1158" y="-26" width="202" height="202">
<circle cx="1259" cy="75" r="99.6069" fill="#C4C4C4" stroke="#F8BB54" stroke-width="2.78621"/>
</mask>
<g mask="url(#mask0_767_18653)">
<path d="M1099.3 16.3574C1099.3 16.3574 1146.34 7.6452 1158.47 -22.8471C1170.08 -52.0774 1217.88 -59.9343 1217.88 -59.9343" stroke="#62E1FC" stroke-width="3.13178" stroke-miterlimit="10"/>
<path d="M1099.3 31.0129C1099.3 31.0129 1157 20.9576 1171.87 -15.8448C1186.04 -50.9782 1244.63 -59.9343 1244.63 -59.9343" stroke="#62E1FC" stroke-width="3.13178" stroke-miterlimit="10"/>
<path d="M1099.3 45.7096C1099.3 45.7096 1167.63 34.27 1185.22 -8.76116C1202 -49.9195 1271.39 -59.9343 1271.39 -59.9343" stroke="#62E1FC" stroke-width="3.13178" stroke-miterlimit="10"/>
<path d="M1099.3 60.3655C1099.3 60.3655 1178.3 47.5824 1198.62 -1.75887C1217.96 -48.8203 1298.14 -59.9343 1298.14 -59.9343" stroke="#62E1FC" stroke-width="3.13178" stroke-miterlimit="10"/>
<path d="M1099.3 75.0213C1099.3 75.0213 1188.97 60.8948 1212.02 5.28397C1233.92 -47.7211 1324.85 -59.9343 1324.85 -59.9343" stroke="#62E1FC" stroke-width="3.13178" stroke-miterlimit="10"/>
<path d="M1099.3 89.7177C1099.3 89.7177 1199.6 74.2477 1225.37 12.3268C1249.93 -46.6628 1351.61 -59.9343 1351.61 -59.9343" stroke="#62E1FC" stroke-width="3.13178" stroke-miterlimit="10"/>
<path d="M1099.3 104.374C1099.3 104.374 1210.27 87.5193 1238.77 19.3699C1265.89 -45.5636 1378.36 -59.9343 1378.36 -59.9343" stroke="#62E1FC" stroke-width="3.13178" stroke-miterlimit="10"/>
<path d="M1099.3 119.029C1099.3 119.029 1220.93 100.832 1252.13 26.3722C1281.85 -44.4644 1405.11 -59.9343 1405.11 -59.9343" stroke="#62E1FC" stroke-width="3.13178" stroke-miterlimit="10"/>
<path d="M1099.3 133.726C1099.3 133.726 1231.56 114.185 1265.52 33.4556C1297.81 -43.406 1431.82 -59.9343 1431.82 -59.9343" stroke="#62E1FC" stroke-width="3.13178" stroke-miterlimit="10"/>
<path d="M1099.3 148.381C1099.3 148.381 1242.23 127.497 1278.88 40.4987C1313.78 -42.3068 1458.58 -59.9343 1458.58 -59.9343" stroke="#62E1FC" stroke-width="3.13178" stroke-miterlimit="10"/>
<path d="M1099.3 163.077C1099.3 163.077 1252.9 140.809 1292.28 47.5415C1329.74 -41.2076 1485.33 -59.9343 1485.33 -59.9343" stroke="#62E1FC" stroke-width="3.13178" stroke-miterlimit="10"/>
<path d="M1099.3 177.734C1099.3 177.734 1263.53 154.122 1305.63 54.5847C1345.7 -40.149 1512.08 -59.9343 1512.08 -59.9343" stroke="#62E1FC" stroke-width="3.13178" stroke-miterlimit="10"/>
<path d="M1099.3 192.388C1099.3 192.388 1274.2 167.435 1319.03 61.5866C1361.66 -39.0498 1538.83 -59.9343 1538.83 -59.9343" stroke="#62E1FC" stroke-width="3.13178" stroke-miterlimit="10"/>
<path d="M1099.3 207.085C1099.3 207.085 1284.87 180.747 1332.43 68.6703C1377.63 -37.9506 1565.55 -59.9343 1565.55 -59.9343" stroke="#62E1FC" stroke-width="3.13178" stroke-miterlimit="10"/>
<path d="M1099.3 221.742C1099.3 221.742 1295.49 194.059 1345.78 75.6726C1393.59 -36.8922 1592.3 -59.9343 1592.3 -59.9343" stroke="#62E1FC" stroke-width="3.13178" stroke-miterlimit="10"/>
<path d="M1099.3 236.399C1099.3 236.399 1306.16 207.372 1359.18 82.7154C1409.55 -35.793 1619.05 -59.9343 1619.05 -59.9343" stroke="#62E1FC" stroke-width="3.13178" stroke-miterlimit="10"/>
<path d="M1099.3 251.096C1099.3 251.096 1316.83 220.724 1372.54 89.7586C1425.51 -34.6938 1645.81 -59.9343 1645.81 -59.9343" stroke="#62E1FC" stroke-width="3.13178" stroke-miterlimit="10"/>
<path d="M1099.3 265.75C1099.3 265.75 1327.46 233.997 1385.93 96.8014C1441.47 -33.6355 1672.52 -59.9343 1672.52 -59.9343" stroke="#62E1FC" stroke-width="3.13178" stroke-miterlimit="10"/>
</g>
<g clip-path="url(#clip1_767_18653)">
<path d="M97.6773 356.913C98.9601 356.913 100 355.873 100 354.59C100 353.307 98.9601 352.267 97.6773 352.267C96.3944 352.267 95.3545 353.307 95.3545 354.59C95.3545 355.873 96.3944 356.913 97.6773 356.913Z" fill="#62E1FC"/>
<path d="M76.6138 356.913C77.8967 356.913 78.9366 355.873 78.9366 354.59C78.9366 353.307 77.8967 352.267 76.6138 352.267C75.331 352.267 74.291 353.307 74.291 354.59C74.291 355.873 75.331 356.913 76.6138 356.913Z" fill="#62E1FC"/>
<path d="M55.5591 356.913C56.0207 356.915 56.4723 356.78 56.8569 356.525C57.2415 356.27 57.5417 355.906 57.7195 355.48C57.8974 355.054 57.9448 354.585 57.8558 354.132C57.7669 353.679 57.5455 353.263 57.2198 352.936C56.8941 352.609 56.4786 352.386 56.0261 352.295C55.5736 352.204 55.1043 352.25 54.6778 352.426C54.2512 352.602 53.8866 352.901 53.63 353.285C53.3734 353.669 53.2363 354.12 53.2363 354.581C53.2363 355.198 53.4808 355.79 53.9162 356.227C54.3515 356.664 54.9423 356.911 55.5591 356.913V356.913Z" fill="#62E1FC"/>
<path d="M34.5045 356.913C34.9656 356.913 35.4164 356.777 35.7998 356.52C36.1833 356.264 36.4821 355.9 36.6585 355.474C36.835 355.048 36.8811 354.579 36.7912 354.127C36.7012 353.674 36.4792 353.259 36.1531 352.933C35.827 352.606 35.4116 352.384 34.9593 352.294C34.507 352.204 34.0382 352.251 33.6122 352.427C33.1861 352.604 32.822 352.902 32.5658 353.286C32.3096 353.669 32.1729 354.12 32.1729 354.581C32.1729 354.888 32.2331 355.191 32.3503 355.474C32.4675 355.757 32.6392 356.014 32.8557 356.23C33.0722 356.447 33.3293 356.619 33.6122 356.736C33.895 356.853 34.1983 356.913 34.5045 356.913V356.913Z" fill="#62E1FC"/>
<path d="M13.441 356.913C14.7238 356.913 15.7637 355.873 15.7637 354.59C15.7637 353.307 14.7238 352.267 13.441 352.267C12.1581 352.267 11.1182 353.307 11.1182 354.59C11.1182 355.873 12.1581 356.913 13.441 356.913Z" fill="#62E1FC"/>
<path d="M97.6773 337.843C98.9601 337.843 100 336.803 100 335.519C100 334.236 98.9601 333.196 97.6773 333.196C96.3944 333.196 95.3545 334.236 95.3545 335.519C95.3545 336.803 96.3944 337.843 97.6773 337.843Z" fill="#62E1FC"/>
<path d="M76.6138 337.843C77.8967 337.843 78.9366 336.803 78.9366 335.519C78.9366 334.236 77.8967 333.196 76.6138 333.196C75.331 333.196 74.291 334.236 74.291 335.519C74.291 336.803 75.331 337.843 76.6138 337.843Z" fill="#62E1FC"/>
<path d="M55.5591 337.843C56.021 337.844 56.4731 337.709 56.8579 337.453C57.2426 337.198 57.5428 336.834 57.7204 336.407C57.898 335.981 57.9449 335.511 57.8552 335.058C57.7655 334.605 57.5433 334.188 57.2167 333.862C56.8901 333.535 56.4738 333.313 56.0207 333.223C55.5676 333.133 55.0981 333.18 54.6717 333.358C54.2453 333.535 53.8812 333.836 53.6257 334.221C53.3702 334.605 53.2346 335.058 53.2363 335.519C53.2387 336.135 53.4842 336.724 53.9193 337.16C54.3544 337.595 54.9438 337.84 55.5591 337.843V337.843Z" fill="#62E1FC"/>
<path d="M34.5045 337.843C34.966 337.843 35.4171 337.706 35.8007 337.449C36.1843 337.192 36.4832 336.828 36.6594 336.401C36.8356 335.974 36.8812 335.505 36.7905 335.052C36.6999 334.6 36.4769 334.184 36.15 333.859C35.823 333.533 35.4067 333.311 34.9538 333.222C34.501 333.133 34.0319 333.181 33.606 333.359C33.1802 333.537 32.8167 333.837 32.5616 334.222C32.3064 334.606 32.1711 335.058 32.1729 335.519C32.1729 335.825 32.2332 336.128 32.3505 336.411C32.4678 336.693 32.6396 336.949 32.8563 337.165C33.0729 337.381 33.33 337.552 33.6128 337.668C33.8956 337.785 34.1987 337.844 34.5045 337.843V337.843Z" fill="#62E1FC"/>
<path d="M13.441 337.843C14.7238 337.843 15.7637 336.803 15.7637 335.519C15.7637 334.236 14.7238 333.196 13.441 333.196C12.1581 333.196 11.1182 334.236 11.1182 335.519C11.1182 336.803 12.1581 337.843 13.441 337.843Z" fill="#62E1FC"/>
<path d="M97.6773 318.771C98.9601 318.771 100 317.731 100 316.448C100 315.165 98.9601 314.125 97.6773 314.125C96.3944 314.125 95.3545 315.165 95.3545 316.448C95.3545 317.731 96.3944 318.771 97.6773 318.771Z" fill="#62E1FC"/>
<path d="M76.6138 318.771C77.8967 318.771 78.9366 317.731 78.9366 316.448C78.9366 315.165 77.8967 314.125 76.6138 314.125C75.331 314.125 74.291 315.165 74.291 316.448C74.291 317.731 75.331 318.771 76.6138 318.771Z" fill="#62E1FC"/>
<path d="M55.5591 318.78C56.0207 318.782 56.4723 318.646 56.8569 318.391C57.2415 318.136 57.5417 317.772 57.7195 317.346C57.8974 316.92 57.9448 316.451 57.8558 315.998C57.7669 315.545 57.5455 315.129 57.2198 314.802C56.8941 314.475 56.4786 314.252 56.0261 314.161C55.5736 314.071 55.1043 314.116 54.6778 314.293C54.2512 314.469 53.8866 314.768 53.63 315.151C53.3734 315.535 53.2363 315.986 53.2363 316.448C53.2363 317.065 53.4808 317.657 53.9162 318.094C54.3515 318.531 54.9423 318.778 55.5591 318.78V318.78Z" fill="#62E1FC"/>
<path d="M34.5045 318.78C34.9656 318.78 35.4164 318.643 35.7998 318.387C36.1833 318.131 36.4821 317.766 36.6585 317.34C36.835 316.914 36.8811 316.445 36.7912 315.993C36.7012 315.541 36.4792 315.125 36.1531 314.799C35.827 314.473 35.4116 314.251 34.9593 314.161C34.507 314.071 34.0382 314.117 33.6122 314.293C33.1861 314.47 32.822 314.769 32.5658 315.152C32.3096 315.536 32.1729 315.987 32.1729 316.448C32.1729 316.754 32.2331 317.057 32.3503 317.34C32.4675 317.623 32.6392 317.88 32.8557 318.097C33.0722 318.313 33.3293 318.485 33.6122 318.602C33.895 318.72 34.1983 318.78 34.5045 318.78V318.78Z" fill="#62E1FC"/>
<path d="M13.441 318.771C14.7238 318.771 15.7637 317.731 15.7637 316.448C15.7637 315.165 14.7238 314.125 13.441 314.125C12.1581 314.125 11.1182 315.165 11.1182 316.448C11.1182 317.731 12.1581 318.771 13.441 318.771Z" fill="#62E1FC"/>
<path d="M97.6773 299.709C98.9601 299.709 100 298.669 100 297.386C100 296.103 98.9601 295.063 97.6773 295.063C96.3944 295.063 95.3545 296.103 95.3545 297.386C95.3545 298.669 96.3944 299.709 97.6773 299.709Z" fill="#62E1FC"/>
<path d="M76.6138 299.709C77.8967 299.709 78.9366 298.669 78.9366 297.386C78.9366 296.103 77.8967 295.063 76.6138 295.063C75.331 295.063 74.291 296.103 74.291 297.386C74.291 298.669 75.331 299.709 76.6138 299.709Z" fill="#62E1FC"/>
<path d="M55.5591 299.683C56.021 299.684 56.4731 299.549 56.8579 299.293C57.2426 299.038 57.5428 298.674 57.7204 298.247C57.898 297.821 57.9449 297.351 57.8552 296.898C57.7655 296.445 57.5433 296.029 57.2167 295.702C56.8901 295.375 56.4738 295.153 56.0207 295.063C55.5676 294.973 55.0981 295.02 54.6717 295.198C54.2453 295.376 53.8812 295.676 53.6257 296.061C53.3702 296.446 53.2346 296.898 53.2363 297.36C53.2387 297.975 53.4842 298.565 53.9193 299C54.3544 299.435 54.9438 299.68 55.5591 299.683V299.683Z" fill="#62E1FC"/>
<path d="M34.5045 299.683C34.966 299.683 35.4171 299.546 35.8007 299.289C36.1843 299.032 36.4832 298.668 36.6594 298.241C36.8356 297.815 36.8812 297.345 36.7905 296.893C36.6999 296.44 36.4769 296.025 36.15 295.699C35.823 295.373 35.4067 295.152 34.9538 295.063C34.501 294.974 34.0319 295.021 33.606 295.199C33.1802 295.377 32.8167 295.677 32.5616 296.062C32.3064 296.446 32.1711 296.898 32.1729 297.36C32.1729 297.665 32.2332 297.968 32.3505 298.251C32.4678 298.533 32.6396 298.79 32.8563 299.005C33.0729 299.221 33.33 299.392 33.6128 299.508C33.8956 299.625 34.1987 299.684 34.5045 299.683V299.683Z" fill="#62E1FC"/>
<path d="M13.441 299.709C14.7238 299.709 15.7637 298.669 15.7637 297.386C15.7637 296.103 14.7238 295.063 13.441 295.063C12.1581 295.063 11.1182 296.103 11.1182 297.386C11.1182 298.669 12.1581 299.709 13.441 299.709Z" fill="#62E1FC"/>
<path d="M97.6773 280.646C98.9601 280.646 100 279.606 100 278.323C100 277.04 98.9601 276 97.6773 276C96.3944 276 95.3545 277.04 95.3545 278.323C95.3545 279.606 96.3944 280.646 97.6773 280.646Z" fill="#62E1FC"/>
<path d="M76.6137 280.646C77.8965 280.646 78.9365 279.606 78.9365 278.323C78.9365 277.04 77.8965 276 76.6137 276C75.3308 276 74.2909 277.04 74.2909 278.323C74.2909 279.606 75.3308 280.646 76.6137 280.646Z" fill="#62E1FC"/>
<path d="M55.5591 280.655C56.0207 280.657 56.4723 280.522 56.8569 280.266C57.2415 280.011 57.5417 279.648 57.7195 279.222C57.8974 278.796 57.9448 278.327 57.8558 277.874C57.7669 277.421 57.5455 277.004 57.2198 276.677C56.8941 276.35 56.4786 276.127 56.0261 276.037C55.5736 275.946 55.1043 275.992 54.6778 276.168C54.2512 276.344 53.8866 276.643 53.63 277.027C53.3734 277.41 53.2363 277.862 53.2363 278.323C53.2363 278.94 53.4808 279.532 53.9162 279.969C54.3515 280.406 54.9423 280.653 55.5591 280.655V280.655Z" fill="#62E1FC"/>
<path d="M34.5045 280.655C34.9656 280.655 35.4164 280.518 35.7998 280.262C36.1833 280.006 36.4821 279.642 36.6585 279.216C36.835 278.79 36.8811 278.321 36.7912 277.868C36.7012 277.416 36.4792 277 36.1531 276.674C35.827 276.348 35.4116 276.126 34.9593 276.036C34.507 275.946 34.0382 275.992 33.6122 276.169C33.1861 276.345 32.822 276.644 32.5658 277.028C32.3096 277.411 32.1729 277.862 32.1729 278.323C32.1729 278.629 32.2331 278.933 32.3503 279.216C32.4675 279.499 32.6392 279.756 32.8557 279.972C33.0722 280.189 33.3293 280.36 33.6122 280.478C33.895 280.595 34.1983 280.655 34.5045 280.655V280.655Z" fill="#62E1FC"/>
<path d="M13.4411 280.646C14.7239 280.646 15.7639 279.606 15.7639 278.323C15.7639 277.04 14.7239 276 13.4411 276C12.1582 276 11.1183 277.04 11.1183 278.323C11.1183 279.606 12.1582 280.646 13.4411 280.646Z" fill="#62E1FC"/>
</g>
<mask id="mask1_767_18653" style="mask-type:alpha" maskUnits="userSpaceOnUse" x="-70" y="0" width="130" height="130">
<circle cx="-5" cy="65" r="64.1034" fill="#C4C4C4" stroke="#F8BB54" stroke-width="1.7931"/>
</mask>
<g mask="url(#mask1_767_18653)">
<path d="M-107.775 46.1498C-107.775 46.1498 -63.8018 38.7877 -52.4808 11.0944C-41.684 -15.3937 2.9711 -21.8389 2.9711 -21.8389" stroke="#62E1FC" stroke-width="2.0155" stroke-miterlimit="10"/>
<path d="M-107.775 55.5818C-107.775 55.5818 -56.9358 47.3551 -43.859 15.6008C-31.4112 -14.6863 20.1884 -21.8389 20.1884 -21.8389" stroke="#62E1FC" stroke-width="2.0155" stroke-miterlimit="10"/>
<path d="M-107.775 65.0138C-107.775 65.0138 -50.0698 55.9225 -35.2373 20.1333C-21.1385 -13.9789 37.3796 -21.8389 37.3796 -21.8389" stroke="#62E1FC" stroke-width="2.0155" stroke-miterlimit="10"/>
<path d="M-107.775 74.4718C-107.775 74.4718 -43.2301 64.5159 -26.6417 24.6658C-10.8396 -13.2978 54.5968 -21.8389 54.5968 -21.8389" stroke="#62E1FC" stroke-width="2.0155" stroke-miterlimit="10"/>
<path d="M-107.775 83.9038C-107.775 83.9038 -36.3641 73.057 -18.0199 29.1985C-0.566749 -12.5904 71.814 -21.8389 71.814 -21.8389" stroke="#62E1FC" stroke-width="2.0155" stroke-miterlimit="10"/>
<path d="M-107.775 93.3358C-107.775 93.3358 -29.4981 81.6244 -9.42446 33.7049C9.7059 -11.883 89.0315 -21.8389 89.0315 -21.8389" stroke="#62E1FC" stroke-width="2.0155" stroke-miterlimit="10"/>
<path d="M-107.775 102.794C-107.775 102.794 -22.6585 90.2181 -0.802661 38.2636C19.9788 -11.2018 106.223 -21.8389 106.223 -21.8389" stroke="#62E1FC" stroke-width="2.0155" stroke-miterlimit="10"/>
<path d="M-107.775 112.225C-107.775 112.225 -15.7924 98.7855 7.79301 42.7963C30.2514 -10.4944 123.44 -21.8389 123.44 -21.8389" stroke="#62E1FC" stroke-width="2.0155" stroke-miterlimit="10"/>
<path d="M-107.775 121.684C-107.775 121.684 -8.9265 107.353 16.4148 47.3288C40.5243 -9.78703 140.657 -21.8389 140.657 -21.8389" stroke="#62E1FC" stroke-width="2.0155" stroke-miterlimit="10"/>
<path d="M-107.775 131.116C-107.775 131.116 -2.08671 115.92 25.0103 51.8615C50.7969 -9.10572 157.874 -21.8389 157.874 -21.8389" stroke="#62E1FC" stroke-width="2.0155" stroke-miterlimit="10"/>
<path d="M-107.775 140.547C-107.775 140.547 4.7792 124.488 33.632 56.3677C61.0697 -8.39831 175.091 -21.8389 175.091 -21.8389" stroke="#62E1FC" stroke-width="2.0155" stroke-miterlimit="10"/>
<path d="M-107.775 150.005C-107.775 150.005 11.6453 133.055 42.2538 60.9265C71.3424 -7.6909 192.283 -21.8389 192.283 -21.8389" stroke="#62E1FC" stroke-width="2.0155" stroke-miterlimit="10"/>
<path d="M-107.775 159.438C-107.775 159.438 18.4849 141.622 50.8493 65.4329C81.6153 -7.00979 209.5 -21.8389 209.5 -21.8389" stroke="#62E1FC" stroke-width="2.0155" stroke-miterlimit="10"/>
<path d="M-107.775 168.871C-107.775 168.871 25.351 150.19 59.4711 69.9654C91.8879 -6.30237 226.718 -21.8389 226.718 -21.8389" stroke="#62E1FC" stroke-width="2.0155" stroke-miterlimit="10"/>
<path d="M-107.775 178.329C-107.775 178.329 32.2169 158.783 68.0666 74.4981C102.161 -5.59497 243.935 -21.8389 243.935 -21.8389" stroke="#62E1FC" stroke-width="2.0155" stroke-miterlimit="10"/>
<path d="M-107.775 187.76C-107.775 187.76 39.0567 167.325 76.6884 79.0307C112.433 -4.91386 261.127 -21.8389 261.127 -21.8389" stroke="#62E1FC" stroke-width="2.0155" stroke-miterlimit="10"/>
</g>
</g>
<path d="M0 467.817L71.1111 486.712C142.222 505.961 284.444 543.218 426.667 534.082C568.889 524.59 711.111 467.817 853.333 453.624C995.556 439.431 1137.78 467.817 1208.89 482.011L1280 496.204V355H1208.89C1137.78 355 995.556 355 853.333 355C711.111 355 568.889 355 426.667 355C284.444 355 142.222 355 71.1111 355H0L0 467.817Z" fill="#1d4ed8"/>
<g clip-path="url(#clip2_767_18653)">
<path d="M1215.25 354.91C1216.71 354.91 1217.89 353.728 1217.89 352.27C1217.89 350.812 1216.71 349.63 1215.25 349.63C1213.79 349.63 1212.61 350.812 1212.61 352.27C1212.61 353.728 1213.79 354.91 1215.25 354.91Z" fill="#62E1FC"/>
<path d="M1191.31 354.91C1192.77 354.91 1193.95 353.728 1193.95 352.27C1193.95 350.812 1192.77 349.63 1191.31 349.63C1189.85 349.63 1188.67 350.812 1188.67 352.27C1188.67 353.728 1189.85 354.91 1191.31 354.91Z" fill="#62E1FC"/>
<path d="M1167.38 354.91C1167.9 354.912 1168.42 354.758 1168.86 354.468C1169.29 354.178 1169.63 353.765 1169.84 353.281C1170.04 352.797 1170.09 352.264 1169.99 351.749C1169.89 351.235 1169.64 350.761 1169.27 350.39C1168.9 350.018 1168.43 349.765 1167.91 349.662C1167.4 349.559 1166.86 349.611 1166.38 349.811C1165.89 350.011 1165.48 350.351 1165.19 350.787C1164.9 351.223 1164.74 351.736 1164.74 352.26C1164.74 352.961 1165.02 353.634 1165.51 354.13C1166.01 354.627 1166.68 354.907 1167.38 354.91V354.91Z" fill="#62E1FC"/>
<path d="M1143.45 354.91C1143.97 354.91 1144.49 354.755 1144.92 354.464C1145.36 354.172 1145.7 353.758 1145.9 353.274C1146.1 352.79 1146.15 352.257 1146.05 351.743C1145.95 351.229 1145.69 350.757 1145.32 350.386C1144.95 350.016 1144.48 349.763 1143.97 349.661C1143.45 349.559 1142.92 349.611 1142.44 349.812C1141.95 350.012 1141.54 350.352 1141.25 350.788C1140.96 351.224 1140.8 351.736 1140.8 352.26C1140.8 352.608 1140.87 352.953 1141 353.274C1141.13 353.596 1141.33 353.888 1141.58 354.134C1141.82 354.38 1142.11 354.575 1142.44 354.708C1142.76 354.842 1143.1 354.91 1143.45 354.91V354.91Z" fill="#62E1FC"/>
<path d="M1119.51 354.91C1120.97 354.91 1122.15 353.728 1122.15 352.27C1122.15 350.812 1120.97 349.63 1119.51 349.63C1118.05 349.63 1116.87 350.812 1116.87 352.27C1116.87 353.728 1118.05 354.91 1119.51 354.91Z" fill="#62E1FC"/>
<path d="M1096.59 354.595C1097.94 354.041 1098.58 352.498 1098.03 351.15C1097.47 349.801 1095.93 349.158 1094.58 349.712C1093.23 350.267 1092.59 351.809 1093.14 353.158C1093.7 354.506 1095.24 355.15 1096.59 354.595Z" fill="#62E1FC"/>
<path d="M1071.65 349.66C1071.13 349.658 1070.61 349.812 1070.17 350.102C1069.74 350.393 1069.4 350.807 1069.19 351.291C1068.99 351.776 1068.94 352.31 1069.04 352.824C1069.14 353.339 1069.4 353.813 1069.77 354.184C1070.14 354.555 1070.61 354.808 1071.13 354.909C1071.64 355.011 1072.17 354.958 1072.66 354.756C1073.14 354.554 1073.56 354.213 1073.85 353.776C1074.14 353.339 1074.29 352.825 1074.29 352.3C1074.29 351.601 1074.01 350.931 1073.51 350.436C1073.02 349.942 1072.35 349.663 1071.65 349.66V349.66Z" fill="#62E1FC"/>
<path d="M1215.25 333.5C1216.71 333.5 1217.89 332.318 1217.89 330.86C1217.89 329.402 1216.71 328.22 1215.25 328.22C1213.79 328.22 1212.61 329.402 1212.61 330.86C1212.61 332.318 1213.79 333.5 1215.25 333.5Z" fill="#62E1FC"/>
<path d="M1191.31 333.5C1192.77 333.5 1193.95 332.318 1193.95 330.86C1193.95 329.402 1192.77 328.22 1191.31 328.22C1189.85 328.22 1188.67 329.402 1188.67 330.86C1188.67 332.318 1189.85 333.5 1191.31 333.5Z" fill="#62E1FC"/>
<path d="M1167.38 333.5C1167.91 333.502 1168.42 333.348 1168.86 333.058C1169.29 332.767 1169.63 332.353 1169.84 331.869C1170.04 331.384 1170.09 330.85 1169.99 330.335C1169.89 329.82 1169.64 329.347 1169.26 328.976C1168.89 328.605 1168.42 328.352 1167.9 328.25C1167.39 328.148 1166.86 328.202 1166.37 328.404C1165.89 328.605 1165.47 328.947 1165.18 329.384C1164.89 329.821 1164.74 330.335 1164.74 330.86C1164.74 331.559 1165.02 332.229 1165.52 332.724C1166.01 333.218 1166.68 333.497 1167.38 333.5V333.5Z" fill="#62E1FC"/>
<path d="M1143.45 333.5C1143.97 333.5 1144.49 333.344 1144.92 333.053C1145.36 332.761 1145.7 332.347 1145.9 331.862C1146.1 331.377 1146.15 330.844 1146.05 330.329C1145.95 329.815 1145.69 329.343 1145.32 328.973C1144.95 328.602 1144.48 328.351 1143.96 328.25C1143.45 328.149 1142.91 328.202 1142.43 328.405C1141.94 328.607 1141.53 328.948 1141.24 329.385C1140.95 329.822 1140.8 330.335 1140.8 330.86C1140.8 331.207 1140.87 331.552 1141 331.873C1141.14 332.193 1141.33 332.485 1141.58 332.73C1141.82 332.976 1142.11 333.17 1142.44 333.302C1142.76 333.434 1143.1 333.501 1143.45 333.5V333.5Z" fill="#62E1FC"/>
<path d="M1119.51 333.5C1120.97 333.5 1122.15 332.318 1122.15 330.86C1122.15 329.402 1120.97 328.22 1119.51 328.22C1118.05 328.22 1116.87 329.402 1116.87 330.86C1116.87 332.318 1118.05 333.5 1119.51 333.5Z" fill="#62E1FC"/>
<path d="M1096.59 333.193C1097.94 332.639 1098.58 331.096 1098.03 329.748C1097.48 328.399 1095.93 327.755 1094.58 328.31C1093.24 328.864 1092.59 330.407 1093.15 331.755C1093.7 333.104 1095.24 333.748 1096.59 333.193Z" fill="#62E1FC"/>
<path d="M1071.65 333.5C1072.17 333.5 1072.69 333.344 1073.12 333.053C1073.56 332.761 1073.9 332.347 1074.1 331.862C1074.3 331.377 1074.35 330.844 1074.25 330.329C1074.15 329.815 1073.89 329.343 1073.52 328.973C1073.15 328.602 1072.68 328.351 1072.16 328.25C1071.65 328.149 1071.11 328.202 1070.63 328.405C1070.14 328.607 1069.73 328.948 1069.44 329.385C1069.15 329.822 1069 330.335 1069 330.86C1069 331.207 1069.07 331.552 1069.2 331.873C1069.34 332.193 1069.53 332.485 1069.78 332.73C1070.02 332.976 1070.32 333.17 1070.64 333.302C1070.96 333.434 1071.3 333.501 1071.65 333.5Z" fill="#62E1FC"/>
<path d="M1215.25 312.09C1216.71 312.09 1217.89 310.908 1217.89 309.45C1217.89 307.992 1216.71 306.81 1215.25 306.81C1213.79 306.81 1212.61 307.992 1212.61 309.45C1212.61 310.908 1213.79 312.09 1215.25 312.09Z" fill="#62E1FC"/>
<path d="M1191.31 312.09C1192.77 312.09 1193.95 310.908 1193.95 309.45C1193.95 307.992 1192.77 306.81 1191.31 306.81C1189.85 306.81 1188.67 307.992 1188.67 309.45C1188.67 310.908 1189.85 312.09 1191.31 312.09Z" fill="#62E1FC"/>
<path d="M1167.38 312.1C1167.9 312.102 1168.42 311.948 1168.86 311.658C1169.29 311.368 1169.63 310.955 1169.84 310.471C1170.04 309.987 1170.09 309.454 1169.99 308.939C1169.89 308.425 1169.64 307.951 1169.27 307.58C1168.9 307.208 1168.43 306.955 1167.91 306.852C1167.4 306.749 1166.86 306.801 1166.38 307.001C1165.89 307.201 1165.48 307.541 1165.19 307.977C1164.9 308.413 1164.74 308.925 1164.74 309.45C1164.74 310.151 1165.02 310.824 1165.51 311.32C1166.01 311.817 1166.68 312.097 1167.38 312.1V312.1Z" fill="#62E1FC"/>
<path d="M1143.45 312.1C1143.97 312.1 1144.49 311.945 1144.92 311.653C1145.36 311.362 1145.7 310.948 1145.9 310.464C1146.1 309.98 1146.15 309.447 1146.05 308.933C1145.95 308.419 1145.69 307.947 1145.32 307.576C1144.95 307.206 1144.48 306.953 1143.97 306.851C1143.45 306.749 1142.92 306.801 1142.44 307.002C1141.95 307.202 1141.54 307.542 1141.25 307.978C1140.96 308.414 1140.8 308.926 1140.8 309.45C1140.8 309.798 1140.87 310.143 1141 310.464C1141.13 310.786 1141.33 311.078 1141.58 311.324C1141.82 311.57 1142.11 311.765 1142.44 311.898C1142.76 312.032 1143.1 312.1 1143.45 312.1V312.1Z" fill="#62E1FC"/>
<path d="M1119.51 312.09C1120.97 312.09 1122.15 310.908 1122.15 309.45C1122.15 307.992 1120.97 306.81 1119.51 306.81C1118.05 306.81 1116.87 307.992 1116.87 309.45C1116.87 310.908 1118.05 312.09 1119.51 312.09Z" fill="#62E1FC"/>
<path d="M1096.59 311.792C1097.94 311.237 1098.58 309.694 1098.03 308.346C1097.47 306.997 1095.93 306.354 1094.58 306.908C1093.23 307.463 1092.59 309.005 1093.15 310.354C1093.7 311.702 1095.24 312.346 1096.59 311.792Z" fill="#62E1FC"/>
<path d="M1071.65 312.1C1072.17 312.1 1072.69 311.945 1073.12 311.653C1073.56 311.362 1073.9 310.948 1074.1 310.464C1074.3 309.98 1074.35 309.447 1074.25 308.933C1074.15 308.419 1073.89 307.947 1073.52 307.576C1073.15 307.206 1072.68 306.953 1072.17 306.851C1071.65 306.749 1071.12 306.801 1070.64 307.002C1070.15 307.202 1069.74 307.542 1069.45 307.978C1069.16 308.414 1069 308.926 1069 309.45C1069 310.153 1069.28 310.827 1069.78 311.324C1070.27 311.821 1070.95 312.1 1071.65 312.1V312.1Z" fill="#62E1FC"/>
<path d="M1215.25 290.69C1216.71 290.69 1217.89 289.508 1217.89 288.05C1217.89 286.592 1216.71 285.41 1215.25 285.41C1213.79 285.41 1212.61 286.592 1212.61 288.05C1212.61 289.508 1213.79 290.69 1215.25 290.69Z" fill="#62E1FC"/>
<path d="M1191.31 290.69C1192.77 290.69 1193.95 289.508 1193.95 288.05C1193.95 286.592 1192.77 285.41 1191.31 285.41C1189.85 285.41 1188.67 286.592 1188.67 288.05C1188.67 289.508 1189.85 290.69 1191.31 290.69Z" fill="#62E1FC"/>
<path d="M1167.38 290.66C1167.91 290.662 1168.42 290.508 1168.86 290.218C1169.29 289.927 1169.63 289.513 1169.84 289.029C1170.04 288.544 1170.09 288.011 1169.99 287.496C1169.89 286.981 1169.64 286.508 1169.26 286.136C1168.89 285.765 1168.42 285.512 1167.9 285.411C1167.39 285.309 1166.86 285.362 1166.37 285.564C1165.89 285.766 1165.47 286.107 1165.18 286.544C1164.89 286.981 1164.74 287.495 1164.74 288.02C1164.74 288.719 1165.02 289.389 1165.52 289.884C1166.01 290.379 1166.68 290.657 1167.38 290.66V290.66Z" fill="#62E1FC"/>
<path d="M1143.45 290.66C1143.97 290.66 1144.49 290.504 1144.92 290.213C1145.36 289.921 1145.7 289.507 1145.9 289.022C1146.1 288.537 1146.15 288.004 1146.05 287.489C1145.95 286.975 1145.69 286.503 1145.32 286.133C1144.95 285.763 1144.48 285.511 1143.96 285.41C1143.45 285.309 1142.91 285.363 1142.43 285.565C1141.94 285.767 1141.53 286.108 1141.24 286.545C1140.95 286.982 1140.8 287.496 1140.8 288.02C1140.8 288.368 1140.87 288.712 1141 289.033C1141.14 289.354 1141.33 289.645 1141.58 289.89C1141.82 290.136 1142.11 290.33 1142.44 290.462C1142.76 290.594 1143.1 290.661 1143.45 290.66V290.66Z" fill="#62E1FC"/>
<path d="M1119.51 290.69C1120.97 290.69 1122.15 289.508 1122.15 288.05C1122.15 286.592 1120.97 285.41 1119.51 285.41C1118.05 285.41 1116.87 286.592 1116.87 288.05C1116.87 289.508 1118.05 290.69 1119.51 290.69Z" fill="#62E1FC"/>
<path d="M1096.59 290.389C1097.94 289.835 1098.59 288.292 1098.03 286.944C1097.48 285.595 1095.93 284.951 1094.59 285.506C1093.24 286.06 1092.59 287.603 1093.15 288.951C1093.7 290.3 1095.25 290.944 1096.59 290.389Z" fill="#62E1FC"/>
<path d="M1071.65 290.66C1072.17 290.66 1072.69 290.504 1073.12 290.213C1073.56 289.921 1073.9 289.507 1074.1 289.022C1074.3 288.537 1074.35 288.004 1074.25 287.489C1074.15 286.975 1073.89 286.503 1073.52 286.133C1073.15 285.763 1072.68 285.511 1072.16 285.41C1071.65 285.309 1071.11 285.363 1070.63 285.565C1070.14 285.767 1069.73 286.108 1069.44 286.545C1069.15 286.982 1069 287.496 1069 288.02C1069 288.368 1069.07 288.712 1069.2 289.033C1069.34 289.354 1069.53 289.645 1069.78 289.89C1070.02 290.136 1070.32 290.33 1070.64 290.462C1070.96 290.594 1071.3 290.661 1071.65 290.66V290.66Z" fill="#62E1FC"/>
<path d="M1215.25 269.28C1216.71 269.28 1217.89 268.098 1217.89 266.64C1217.89 265.182 1216.71 264 1215.25 264C1213.79 264 1212.61 265.182 1212.61 266.64C1212.61 268.098 1213.79 269.28 1215.25 269.28Z" fill="#62E1FC"/>
<path d="M1191.31 269.28C1192.77 269.28 1193.95 268.098 1193.95 266.64C1193.95 265.182 1192.77 264 1191.31 264C1189.85 264 1188.67 265.182 1188.67 266.64C1188.67 268.098 1189.85 269.28 1191.31 269.28Z" fill="#62E1FC"/>
<path d="M1167.38 269.29C1167.9 269.292 1168.42 269.138 1168.86 268.848C1169.29 268.558 1169.63 268.145 1169.84 267.661C1170.04 267.177 1170.09 266.644 1169.99 266.129C1169.89 265.614 1169.64 265.141 1169.27 264.77C1168.9 264.398 1168.43 264.145 1167.91 264.042C1167.4 263.939 1166.86 263.99 1166.38 264.191C1165.89 264.391 1165.48 264.731 1165.19 265.167C1164.9 265.603 1164.74 266.115 1164.74 266.64C1164.74 267.341 1165.02 268.014 1165.51 268.51C1166.01 269.007 1166.68 269.287 1167.38 269.29V269.29Z" fill="#62E1FC"/>
<path d="M1143.45 269.29C1143.97 269.29 1144.49 269.135 1144.92 268.843C1145.36 268.552 1145.7 268.138 1145.9 267.654C1146.1 267.17 1146.15 266.637 1146.05 266.123C1145.95 265.609 1145.69 265.137 1145.32 264.766C1144.95 264.396 1144.48 264.143 1143.97 264.041C1143.45 263.939 1142.92 263.991 1142.44 264.192C1141.95 264.392 1141.54 264.732 1141.25 265.168C1140.96 265.604 1140.8 266.116 1140.8 266.64C1140.8 266.988 1140.87 267.333 1141 267.654C1141.13 267.976 1141.33 268.268 1141.58 268.514C1141.82 268.76 1142.11 268.955 1142.44 269.088C1142.76 269.221 1143.1 269.29 1143.45 269.29V269.29Z" fill="#62E1FC"/>
<path d="M1119.51 269.28C1120.97 269.28 1122.15 268.098 1122.15 266.64C1122.15 265.182 1120.97 264 1119.51 264C1118.05 264 1116.87 265.182 1116.87 266.64C1116.87 268.098 1118.05 269.28 1119.51 269.28Z" fill="#62E1FC"/>
<path d="M1096.59 268.978C1097.94 268.423 1098.58 266.88 1098.03 265.532C1097.48 264.183 1095.93 263.54 1094.58 264.094C1093.24 264.649 1092.59 266.191 1093.15 267.54C1093.7 268.888 1095.24 269.532 1096.59 268.978Z" fill="#62E1FC"/>
<path d="M1071.65 269.29C1072.17 269.29 1072.69 269.135 1073.12 268.843C1073.56 268.552 1073.9 268.138 1074.1 267.654C1074.3 267.17 1074.35 266.637 1074.25 266.123C1074.15 265.609 1073.89 265.137 1073.52 264.766C1073.15 264.396 1072.68 264.143 1072.17 264.041C1071.65 263.939 1071.12 263.991 1070.64 264.192C1070.15 264.392 1069.74 264.732 1069.45 265.168C1069.16 265.604 1069 266.116 1069 266.64C1069 267.343 1069.28 268.017 1069.78 268.514C1070.27 269.011 1070.95 269.29 1071.65 269.29V269.29Z" fill="#62E1FC"/>
</g>
<defs>
<clipPath id="clip0_767_18653">
<rect width="1280" height="356" fill="white"/>
</clipPath>
<clipPath id="clip1_767_18653">
<rect width="131" height="80" fill="white" transform="translate(-31 276)"/>
</clipPath>
<clipPath id="clip2_767_18653">
<rect width="148.89" height="90.91" fill="white" transform="translate(1069 264)"/>
</clipPath>
</defs>
</svg>
